<svg xmlns="http://www.w3.org/2000/svg" viewBox="0 0 880 430" width="880" height="430" font-family="Helvetica, Arial, sans-serif">
<defs><marker id="arrow" viewBox="0 0 10 10" refX="9" refY="5" markerWidth="7" markerHeight="7" orient="auto-start-reverse"><path d="M1 1 L9 5 L1 9" fill="none" stroke="#555555" stroke-width="1.6" stroke-linecap="round" stroke-linejoin="round"/></marker></defs>
<rect x="0" y="0" width="880" height="430" fill="#ffffff"/>
<text x="440.0" y="26" text-anchor="middle" font-size="15" font-weight="bold" fill="#1a1a1a">Bloc 4 — Architecture MLOps (service + ETL)</text>
<path d="M 245 80 L 288 80 L 288 80 L 330 80" fill="none" stroke="#555555" stroke-width="1.6" marker-end="url(#arrow)"/>
<rect x="260" y="71" width="56" height="16" rx="3" fill="#ffffff" stroke="#dddddd" stroke-width="0.7"/>
<text x="288" y="80" text-anchor="middle" dominant-baseline="central" font-family="Helvetica, Arial, sans-serif" font-size="10" fill="#333333">register</text>
<path d="M 550 80 L 592 80 L 592 80 L 635 80" fill="none" stroke="#555555" stroke-width="1.6" marker-end="url(#arrow)"/>
<rect x="552" y="71" width="80" height="16" rx="3" fill="#ffffff" stroke="#dddddd" stroke-width="0.7"/>
<text x="592" y="80" text-anchor="middle" dominant-baseline="central" font-family="Helvetica, Arial, sans-serif" font-size="10" fill="#333333">charge @prod</text>
<path d="M 245 242 L 288 242 L 288 244 L 330 244" fill="none" stroke="#555555" stroke-width="1.6" marker-end="url(#arrow)"/>
<rect x="262" y="234" width="50" height="16" rx="3" fill="#ffffff" stroke="#dddddd" stroke-width="0.7"/>
<text x="288" y="243" text-anchor="middle" dominant-baseline="central" font-family="Helvetica, Arial, sans-serif" font-size="10" fill="#333333">extract</text>
<path d="M 550 244 L 592 244 L 592 80 L 635 80" fill="none" stroke="#555555" stroke-width="1.6" marker-end="url(#arrow)"/>
<rect x="550" y="153" width="86" height="16" rx="3" fill="#ffffff" stroke="#dddddd" stroke-width="0.7"/>
<text x="592" y="162" text-anchor="middle" dominant-baseline="central" font-family="Helvetica, Arial, sans-serif" font-size="10" fill="#333333">POST /predict</text>
<path d="M 550 244 L 592 244 L 592 241 L 635 241" fill="none" stroke="#555555" stroke-width="1.6" marker-end="url(#arrow)"/>
<rect x="576" y="234" width="32" height="16" rx="3" fill="#ffffff" stroke="#dddddd" stroke-width="0.7"/>
<text x="592" y="242" text-anchor="middle" dominant-baseline="central" font-family="Helvetica, Arial, sans-serif" font-size="10" fill="#333333">load</text>
<path d="M 440 283 L 440 316 L 440 316 L 440 350" fill="none" stroke="#555555" stroke-width="1.6" marker-end="url(#arrow)"/>
<rect x="391" y="308" width="98" height="16" rx="3" fill="#ffffff" stroke="#dddddd" stroke-width="0.7"/>
<text x="440" y="316" text-anchor="middle" dominant-baseline="central" font-family="Helvetica, Arial, sans-serif" font-size="10" fill="#333333">backups + préd.</text>
<path d="M 135 110 L 15 380 L 320 380 L 330 378" fill="none" stroke="#555555" stroke-width="1.6" stroke-dasharray="6 4" marker-end="url(#arrow)"/>
<rect x="130" y="371" width="74" height="16" rx="3" fill="#ffffff" stroke="#dddddd" stroke-width="0.7"/>
<text x="168" y="380" text-anchor="middle" dominant-baseline="central" font-family="Helvetica, Arial, sans-serif" font-size="10" fill="#333333">lit la prod</text>
<rect x="25" y="50" width="220" height="60" rx="8" fill="#ffe6cc" stroke="#d79b00" stroke-width="1.5"/>
<text x="135.0" y="72.0" text-anchor="middle" dominant-baseline="central" font-family="Helvetica, Arial, sans-serif" font-size="12" font-weight="bold" fill="#1a1a1a">train-repo</text>
<text x="135.0" y="88.0" text-anchor="middle" dominant-baseline="central" font-family="Helvetica, Arial, sans-serif" font-size="10.5" font-weight="normal" fill="#444444">train.py · monitoring.yaml</text>
<rect x="330" y="50" width="220" height="60" rx="8" fill="#f5f5f5" stroke="#666666" stroke-width="1.5"/>
<text x="440.0" y="72.0" text-anchor="middle" dominant-baseline="central" font-family="Helvetica, Arial, sans-serif" font-size="12" font-weight="bold" fill="#1a1a1a">Serveur MLflow Tracking</text>
<text x="440.0" y="88.0" text-anchor="middle" dominant-baseline="central" font-family="Helvetica, Arial, sans-serif" font-size="10.5" font-weight="normal" fill="#444444">backend Neon · artefacts S3</text>
<rect x="635" y="50" width="220" height="60" rx="8" fill="#dae8fc" stroke="#6c8ebf" stroke-width="1.5"/>
<text x="745.0" y="72.0" text-anchor="middle" dominant-baseline="central" font-family="Helvetica, Arial, sans-serif" font-size="12" font-weight="bold" fill="#1a1a1a">API Modèle (FastAPI)</text>
<text x="745.0" y="88.0" text-anchor="middle" dominant-baseline="central" font-family="Helvetica, Arial, sans-serif" font-size="10.5" font-weight="normal" fill="#444444">POST /predict @production</text>
<rect x="330" y="205" width="220" height="78" rx="8" fill="#ffe6cc" stroke="#d79b00" stroke-width="1.5"/>
<text x="440.0" y="228.0" text-anchor="middle" dominant-baseline="central" font-family="Helvetica, Arial, sans-serif" font-size="12" font-weight="bold" fill="#1a1a1a">Pipeline ETL (etl.py)</text>
<text x="440.0" y="244.0" text-anchor="middle" dominant-baseline="central" font-family="Helvetica, Arial, sans-serif" font-size="10.5" font-weight="normal" fill="#444444">extract → transform → load</text>
<text x="440.0" y="260.0" text-anchor="middle" dominant-baseline="central" font-family="Helvetica, Arial, sans-serif" font-size="10.5" font-weight="normal" fill="#444444">ordonnanceur borné</text>
<rect x="25" y="212" width="220" height="60" rx="8" fill="#dae8fc" stroke="#6c8ebf" stroke-width="1.5"/>
<text x="135.0" y="234.0" text-anchor="middle" dominant-baseline="central" font-family="Helvetica, Arial, sans-serif" font-size="12" font-weight="bold" fill="#1a1a1a">API Données</text>
<text x="135.0" y="250.0" text-anchor="middle" dominant-baseline="central" font-family="Helvetica, Arial, sans-serif" font-size="10.5" font-weight="normal" fill="#444444">GET /current-employee</text>
<rect x="330" y="350" width="220" height="56" rx="8" fill="#d5e8d4" stroke="#82b366" stroke-width="1.5"/>
<text x="440.0" y="370.0" text-anchor="middle" dominant-baseline="central" font-family="Helvetica, Arial, sans-serif" font-size="12" font-weight="bold" fill="#1a1a1a">Amazon S3</text>
<text x="440.0" y="386.0" text-anchor="middle" dominant-baseline="central" font-family="Helvetica, Arial, sans-serif" font-size="10.5" font-weight="normal" fill="#444444">backups + prédictions</text>
<rect x="635" y="213" width="220" height="56" rx="8" fill="#d5e8d4" stroke="#82b366" stroke-width="1.5"/>
<text x="745.0" y="233.0" text-anchor="middle" dominant-baseline="central" font-family="Helvetica, Arial, sans-serif" font-size="12" font-weight="bold" fill="#1a1a1a">PostgreSQL Neon</text>
<text x="745.0" y="249.0" text-anchor="middle" dominant-baseline="central" font-family="Helvetica, Arial, sans-serif" font-size="10.5" font-weight="normal" fill="#444444">table prédictions</text>
</svg>